<svg xmlns="http://www.w3.org/2000/svg" width="720" height="550" viewBox="0 0 720 550">
<rect x="0" y="0" width="720" height="550" fill="white"/>
<g transform="translate(66.0,56.0)">
<text x="192.0" y="206.0" font-family="Consolas,monospace" font-size="13" text-anchor="middle" fill="#111" font-weight="bold">FRONT VIEW</text>
<rect x="0.0" y="214.0" width="384.0" height="216.0" rx="4" fill="none" stroke="#111" stroke-width="1.6"/>
<rect x="96.0" y="247.6" width="192.0" height="120.0" rx="0" fill="none" stroke="#444" stroke-width="1.3"/>
<text x="192.0" y="307.6" font-family="Consolas,monospace" font-size="10" text-anchor="middle" fill="#444" font-weight="normal">RF RADOME</text>
<text x="192.0" y="319.6" font-family="Consolas,monospace" font-size="8" text-anchor="middle" fill="#444" font-weight="normal">(no metal)</text>
<circle cx="72.0" cy="391.6" r="7.2" fill="none" stroke="#444" stroke-width="1.3"/>
<text x="72.0" y="407.6" font-family="Consolas,monospace" font-size="8" text-anchor="middle" fill="#444" font-weight="normal">LED</text>
<circle cx="312.0" cy="391.6" r="9.6" fill="none" stroke="#444" stroke-width="1.3"/>
<text x="312.0" y="407.6" font-family="Consolas,monospace" font-size="8" text-anchor="middle" fill="#444" font-weight="normal">MUTE</text>
<line x1="0.0" y1="464.0" x2="384.0" y2="464.0" stroke="#1f6feb" stroke-width="1.0"/>
<line x1="0.0" y1="464.0" x2="-6.1" y2="467.5" stroke="#1f6feb" stroke-width="1.2"/>
<line x1="0.0" y1="464.0" x2="-6.1" y2="460.5" stroke="#1f6feb" stroke-width="1.2"/>
<line x1="384.0" y1="464.0" x2="390.1" y2="460.5" stroke="#1f6feb" stroke-width="1.2"/>
<line x1="384.0" y1="464.0" x2="390.1" y2="467.5" stroke="#1f6feb" stroke-width="1.2"/>
<line x1="0.0" y1="430.0" x2="0.0" y2="464.0" stroke="#1f6feb" stroke-width="0.6" stroke-dasharray="2,2"/>
<line x1="384.0" y1="430.0" x2="384.0" y2="464.0" stroke="#1f6feb" stroke-width="0.6" stroke-dasharray="2,2"/>
<text x="192.0" y="460.0" font-family="Consolas,monospace" font-size="10" text-anchor="middle" fill="#1f6feb" font-weight="normal">160</text>
<line x1="-30.0" y1="214.0" x2="-30.0" y2="430.0" stroke="#1f6feb" stroke-width="1.0"/>
<line x1="-30.0" y1="214.0" x2="-33.5" y2="207.9" stroke="#1f6feb" stroke-width="1.2"/>
<line x1="-30.0" y1="214.0" x2="-26.5" y2="207.9" stroke="#1f6feb" stroke-width="1.2"/>
<line x1="-30.0" y1="430.0" x2="-26.5" y2="436.1" stroke="#1f6feb" stroke-width="1.2"/>
<line x1="-30.0" y1="430.0" x2="-33.5" y2="436.1" stroke="#1f6feb" stroke-width="1.2"/>
<line x1="0.0" y1="214.0" x2="-30.0" y2="214.0" stroke="#1f6feb" stroke-width="0.6" stroke-dasharray="2,2"/>
<line x1="0.0" y1="430.0" x2="-30.0" y2="430.0" stroke="#1f6feb" stroke-width="0.6" stroke-dasharray="2,2"/>
<text x="-36.0" y="322.0" font-family="Consolas,monospace" font-size="10" text-anchor="middle" fill="#1f6feb" font-weight="normal" transform="rotate(-90 -36.0 322.0)">90</text>
<line x1="96.0" y1="225.6" x2="288.0" y2="225.6" stroke="#1f6feb" stroke-width="1.0"/>
<line x1="96.0" y1="225.6" x2="89.9" y2="229.1" stroke="#1f6feb" stroke-width="1.2"/>
<line x1="96.0" y1="225.6" x2="89.9" y2="222.1" stroke="#1f6feb" stroke-width="1.2"/>
<line x1="288.0" y1="225.6" x2="294.1" y2="222.1" stroke="#1f6feb" stroke-width="1.2"/>
<line x1="288.0" y1="225.6" x2="294.1" y2="229.1" stroke="#1f6feb" stroke-width="1.2"/>
<line x1="96.0" y1="247.6" x2="96.0" y2="225.6" stroke="#1f6feb" stroke-width="0.6" stroke-dasharray="2,2"/>
<line x1="288.0" y1="247.6" x2="288.0" y2="225.6" stroke="#1f6feb" stroke-width="0.6" stroke-dasharray="2,2"/>
<text x="192.0" y="221.6" font-family="Consolas,monospace" font-size="10" text-anchor="middle" fill="#1f6feb" font-weight="normal">80</text>
<line x1="314.0" y1="247.6" x2="314.0" y2="367.6" stroke="#1f6feb" stroke-width="1.0"/>
<line x1="314.0" y1="247.6" x2="310.5" y2="241.5" stroke="#1f6feb" stroke-width="1.2"/>
<line x1="314.0" y1="247.6" x2="317.5" y2="241.5" stroke="#1f6feb" stroke-width="1.2"/>
<line x1="314.0" y1="367.6" x2="317.5" y2="373.7" stroke="#1f6feb" stroke-width="1.2"/>
<line x1="314.0" y1="367.6" x2="310.5" y2="373.7" stroke="#1f6feb" stroke-width="1.2"/>
<line x1="288.0" y1="247.6" x2="314.0" y2="247.6" stroke="#1f6feb" stroke-width="0.6" stroke-dasharray="2,2"/>
<line x1="288.0" y1="367.6" x2="314.0" y2="367.6" stroke="#1f6feb" stroke-width="0.6" stroke-dasharray="2,2"/>
<text x="308.0" y="307.6" font-family="Consolas,monospace" font-size="10" text-anchor="middle" fill="#1f6feb" font-weight="normal" transform="rotate(-90 308.0 307.6)">50</text>
<text x="192.0" y="450.0" font-family="Consolas,monospace" font-size="8" text-anchor="middle" fill="#444" font-weight="normal">LED dia 6   MUTE dia 8</text>
<text x="192.0" y="-8.0" font-family="Consolas,monospace" font-size="13" text-anchor="middle" fill="#111" font-weight="bold">TOP VIEW</text>
<rect x="0.0" y="0.0" width="384.0" height="144.0" rx="4" fill="none" stroke="#111" stroke-width="1.6"/>
<circle cx="96.0" cy="120.0" r="14.4" fill="none" stroke="#444" stroke-width="1.3"/>
<text x="96.0" y="124.0" font-family="Consolas,monospace" font-size="7" text-anchor="middle" fill="#444" font-weight="normal">12V</text>
<circle cx="192.0" cy="120.0" r="14.4" fill="none" stroke="#444" stroke-width="1.3"/>
<text x="192.0" y="124.0" font-family="Consolas,monospace" font-size="7" text-anchor="middle" fill="#444" font-weight="normal">USB</text>
<circle cx="288.0" cy="120.0" r="14.4" fill="none" stroke="#444" stroke-width="1.3"/>
<text x="288.0" y="124.0" font-family="Consolas,monospace" font-size="7" text-anchor="middle" fill="#444" font-weight="normal">CAN</text>
<circle cx="28.8" cy="28.8" r="5.4" fill="none" stroke="#1f6feb" stroke-width="1.3"/>
<circle cx="28.8" cy="115.2" r="5.4" fill="none" stroke="#1f6feb" stroke-width="1.3"/>
<circle cx="355.2" cy="28.8" r="5.4" fill="none" stroke="#1f6feb" stroke-width="1.3"/>
<circle cx="355.2" cy="115.2" r="5.4" fill="none" stroke="#1f6feb" stroke-width="1.3"/>
<text x="28.8" y="18.8" font-family="Consolas,monospace" font-size="8" text-anchor="middle" fill="#1f6feb" font-weight="normal">4x M4</text>
<line x1="-30.0" y1="0.0" x2="-30.0" y2="144.0" stroke="#1f6feb" stroke-width="1.0"/>
<line x1="-30.0" y1="0.0" x2="-33.5" y2="-6.1" stroke="#1f6feb" stroke-width="1.2"/>
<line x1="-30.0" y1="0.0" x2="-26.5" y2="-6.1" stroke="#1f6feb" stroke-width="1.2"/>
<line x1="-30.0" y1="144.0" x2="-26.5" y2="150.1" stroke="#1f6feb" stroke-width="1.2"/>
<line x1="-30.0" y1="144.0" x2="-33.5" y2="150.1" stroke="#1f6feb" stroke-width="1.2"/>
<line x1="0.0" y1="0.0" x2="-30.0" y2="0.0" stroke="#1f6feb" stroke-width="0.6" stroke-dasharray="2,2"/>
<line x1="0.0" y1="144.0" x2="-30.0" y2="144.0" stroke="#1f6feb" stroke-width="0.6" stroke-dasharray="2,2"/>
<text x="-36.0" y="72.0" font-family="Consolas,monospace" font-size="10" text-anchor="middle" fill="#1f6feb" font-weight="normal" transform="rotate(-90 -36.0 72.0)">60</text>
<line x1="28.8" y1="-22.0" x2="355.2" y2="-22.0" stroke="#1f6feb" stroke-width="1.0"/>
<line x1="28.8" y1="-22.0" x2="22.7" y2="-18.5" stroke="#1f6feb" stroke-width="1.2"/>
<line x1="28.8" y1="-22.0" x2="22.7" y2="-25.5" stroke="#1f6feb" stroke-width="1.2"/>
<line x1="355.2" y1="-22.0" x2="361.3" y2="-25.5" stroke="#1f6feb" stroke-width="1.2"/>
<line x1="355.2" y1="-22.0" x2="361.3" y2="-18.5" stroke="#1f6feb" stroke-width="1.2"/>
<line x1="28.8" y1="0.0" x2="28.8" y2="-22.0" stroke="#1f6feb" stroke-width="0.6" stroke-dasharray="2,2"/>
<line x1="355.2" y1="0.0" x2="355.2" y2="-22.0" stroke="#1f6feb" stroke-width="0.6" stroke-dasharray="2,2"/>
<text x="192.0" y="-26.0" font-family="Consolas,monospace" font-size="10" text-anchor="middle" fill="#1f6feb" font-weight="normal">136 (mount)</text>
<text x="526.0" y="206.0" font-family="Consolas,monospace" font-size="13" text-anchor="middle" fill="#111" font-weight="bold">RIGHT SIDE VIEW</text>
<rect x="454.0" y="214.0" width="144.0" height="216.0" rx="4" fill="none" stroke="#111" stroke-width="1.6"/>
<line x1="454.0" y1="247.6" x2="454.0" y2="367.6" stroke="#444" stroke-width="3"/>
<text x="526.0" y="322.0" font-family="Consolas,monospace" font-size="8" text-anchor="middle" fill="#444" font-weight="normal">boresight</text>
<line x1="454.0" y1="322.0" x2="418.0" y2="325.1" stroke="#1f6feb" stroke-width="1.2"/>
<text x="434.0" y="316.0" font-family="Consolas,monospace" font-size="9" text-anchor="end" fill="#1f6feb" font-weight="normal">5 deg</text>
<text x="434.0" y="330.0" font-family="Consolas,monospace" font-size="8" text-anchor="end" fill="#1f6feb" font-weight="normal">down-tilt</text>
<line x1="454.0" y1="464.0" x2="598.0" y2="464.0" stroke="#1f6feb" stroke-width="1.0"/>
<line x1="454.0" y1="464.0" x2="447.9" y2="467.5" stroke="#1f6feb" stroke-width="1.2"/>
<line x1="454.0" y1="464.0" x2="447.9" y2="460.5" stroke="#1f6feb" stroke-width="1.2"/>
<line x1="598.0" y1="464.0" x2="604.1" y2="460.5" stroke="#1f6feb" stroke-width="1.2"/>
<line x1="598.0" y1="464.0" x2="604.1" y2="467.5" stroke="#1f6feb" stroke-width="1.2"/>
<line x1="454.0" y1="430.0" x2="454.0" y2="464.0" stroke="#1f6feb" stroke-width="0.6" stroke-dasharray="2,2"/>
<line x1="598.0" y1="430.0" x2="598.0" y2="464.0" stroke="#1f6feb" stroke-width="0.6" stroke-dasharray="2,2"/>
<text x="526.0" y="460.0" font-family="Consolas,monospace" font-size="10" text-anchor="middle" fill="#1f6feb" font-weight="normal">60</text>
<line x1="624.0" y1="214.0" x2="624.0" y2="430.0" stroke="#1f6feb" stroke-width="1.0"/>
<line x1="624.0" y1="214.0" x2="620.5" y2="207.9" stroke="#1f6feb" stroke-width="1.2"/>
<line x1="624.0" y1="214.0" x2="627.5" y2="207.9" stroke="#1f6feb" stroke-width="1.2"/>
<line x1="624.0" y1="430.0" x2="627.5" y2="436.1" stroke="#1f6feb" stroke-width="1.2"/>
<line x1="624.0" y1="430.0" x2="620.5" y2="436.1" stroke="#1f6feb" stroke-width="1.2"/>
<line x1="598.0" y1="214.0" x2="624.0" y2="214.0" stroke="#1f6feb" stroke-width="0.6" stroke-dasharray="2,2"/>
<line x1="598.0" y1="430.0" x2="624.0" y2="430.0" stroke="#1f6feb" stroke-width="0.6" stroke-dasharray="2,2"/>
<text x="618.0" y="322.0" font-family="Consolas,monospace" font-size="10" text-anchor="middle" fill="#1f6feb" font-weight="normal" transform="rotate(-90 618.0 322.0)">90</text>
<rect x="454.0" y="0.0" width="152.0" height="144.0" rx="0" fill="none" stroke="#111" stroke-width="1.2"/>
<text x="462.0" y="18.0" font-family="Consolas,monospace" font-size="11" text-anchor="start" fill="#111" font-weight="bold">DRAWING</text>
<text x="462.0" y="34.0" font-family="Consolas,monospace" font-size="9" text-anchor="start" fill="#222" font-weight="normal">PROJECT   DeerWatch mmWave</text>
<text x="462.0" y="48.0" font-family="Consolas,monospace" font-size="9" text-anchor="start" fill="#222" font-weight="normal">PART      Enclosure ENC-001 rev A</text>
<text x="462.0" y="62.0" font-family="Consolas,monospace" font-size="9" text-anchor="start" fill="#222" font-weight="normal">MATERIAL  Polycarbonate, IP65</text>
<text x="462.0" y="76.0" font-family="Consolas,monospace" font-size="9" text-anchor="start" fill="#222" font-weight="normal">UNITS     mm  (third-angle)</text>
<text x="462.0" y="90.0" font-family="Consolas,monospace" font-size="9" text-anchor="start" fill="#222" font-weight="normal">ENVELOPE  160 x 90 x 60</text>
<text x="462.0" y="104.0" font-family="Consolas,monospace" font-size="9" text-anchor="start" fill="#222" font-weight="normal">SCALE     see dims (not to print)</text>
<text x="462.0" y="118.0" font-family="Consolas,monospace" font-size="9" text-anchor="start" fill="#222" font-weight="normal">RADOME    80 x 50, wall &lt;=2mm</text>
<text x="462.0" y="132.0" font-family="Consolas,monospace" font-size="9" text-anchor="start" fill="#222" font-weight="normal">TILT      5 deg down</text>
</g>
</svg>
