%FSLAX46Y46*%
%MOMM*%
%LPD*%
%ADD10C,1.800000*%
%ADD11C,2.500000*%
%ADD12C,2.000000*%
%ADD13C,1.700000*%
D10*
X10870000Y42000000D03*
X10870000Y44540000D03*
X13410000Y42000000D03*
X13410000Y44540000D03*
X15950000Y42000000D03*
X15950000Y44540000D03*
X18490000Y42000000D03*
X18490000Y44540000D03*
X21030000Y42000000D03*
X21030000Y44540000D03*
X23570000Y42000000D03*
X23570000Y44540000D03*
X26110000Y42000000D03*
X26110000Y44540000D03*
X28650000Y42000000D03*
X28650000Y44540000D03*
X31190000Y42000000D03*
X31190000Y44540000D03*
X33730000Y42000000D03*
X33730000Y44540000D03*
X36270000Y42000000D03*
X36270000Y44540000D03*
X38810000Y42000000D03*
X38810000Y44540000D03*
X41350000Y42000000D03*
X41350000Y44540000D03*
X43890000Y42000000D03*
X43890000Y44540000D03*
X46430000Y42000000D03*
X46430000Y44540000D03*
X48970000Y42000000D03*
X48970000Y44540000D03*
X51510000Y42000000D03*
X51510000Y44540000D03*
X54050000Y42000000D03*
X54050000Y44540000D03*
X56590000Y42000000D03*
X56590000Y44540000D03*
X59130000Y42000000D03*
X59130000Y44540000D03*
D11*
X8000000Y7000000D03*
X13080000Y7000000D03*
X24000000Y7000000D03*
X29080000Y7000000D03*
X34160000Y7000000D03*
D10*
X52000000Y6000000D03*
X52000000Y8540000D03*
X54540000Y6000000D03*
X54540000Y8540000D03*
D12*
X8750000Y22000000D03*
X11250000Y22000000D03*
X42750000Y24000000D03*
X45250000Y24000000D03*
D13*
X59000000Y14000000D03*
X59000000Y18000000D03*
X65000000Y14000000D03*
X65000000Y18000000D03*
D10*
X64000000Y30000000D03*
X66540000Y30000000D03*
M02*
