%FSLAX46Y46*%
%MOMM*%
%LPD*%
%ADD10C,1.800000*%
%ADD11C,2.500000*%
%ADD12R,0.700000X1.650000*%
%ADD13R,3.100000X3.600000*%
%ADD14R,2.300000X3.500000*%
%ADD15R,1.100000X1.400000*%
%ADD16C,2.000000*%
%ADD17R,1.600000X1.000000*%
%ADD18R,3.600000X6.100000*%
%ADD19R,0.800000X1.000000*%
%ADD20R,1.100000X1.100000*%
%ADD21R,0.900000X1.000000*%
%ADD22C,1.700000*%
D10*
X10870000Y42000000D03*
X10870000Y44540000D03*
X13410000Y42000000D03*
X13410000Y44540000D03*
X15950000Y42000000D03*
X15950000Y44540000D03*
X18490000Y42000000D03*
X18490000Y44540000D03*
X21030000Y42000000D03*
X21030000Y44540000D03*
X23570000Y42000000D03*
X23570000Y44540000D03*
X26110000Y42000000D03*
X26110000Y44540000D03*
X28650000Y42000000D03*
X28650000Y44540000D03*
X31190000Y42000000D03*
X31190000Y44540000D03*
X33730000Y42000000D03*
X33730000Y44540000D03*
X36270000Y42000000D03*
X36270000Y44540000D03*
X38810000Y42000000D03*
X38810000Y44540000D03*
X41350000Y42000000D03*
X41350000Y44540000D03*
X43890000Y42000000D03*
X43890000Y44540000D03*
X46430000Y42000000D03*
X46430000Y44540000D03*
X48970000Y42000000D03*
X48970000Y44540000D03*
X51510000Y42000000D03*
X51510000Y44540000D03*
X54050000Y42000000D03*
X54050000Y44540000D03*
X56590000Y42000000D03*
X56590000Y44540000D03*
X59130000Y42000000D03*
X59130000Y44540000D03*
D11*
X8000000Y7000000D03*
X13080000Y7000000D03*
X24000000Y7000000D03*
X29080000Y7000000D03*
X34160000Y7000000D03*
D10*
X52000000Y6000000D03*
X52000000Y8540000D03*
X54540000Y6000000D03*
X54540000Y8540000D03*
D12*
X18095000Y27400000D03*
X18095000Y32600000D03*
X19365000Y27400000D03*
X19365000Y32600000D03*
X20635000Y27400000D03*
X20635000Y32600000D03*
X21905000Y27400000D03*
X21905000Y32600000D03*
D13*
X20000000Y30000000D03*
D14*
X30400000Y30000000D03*
X35600000Y30000000D03*
D15*
X31200000Y22000000D03*
X34800000Y22000000D03*
D16*
X8750000Y22000000D03*
X11250000Y22000000D03*
X42750000Y24000000D03*
X45250000Y24000000D03*
D17*
X41000000Y31700000D03*
X41000000Y34000000D03*
X41000000Y36300000D03*
D18*
X47000000Y34000000D03*
D12*
X28095000Y11400000D03*
X28095000Y16600000D03*
X29365000Y11400000D03*
X29365000Y16600000D03*
X30635000Y11400000D03*
X30635000Y16600000D03*
X31905000Y11400000D03*
X31905000Y16600000D03*
D19*
X13050000Y15500000D03*
X13050000Y16500000D03*
X14950000Y16000000D03*
X57050000Y29500000D03*
X57050000Y30500000D03*
X58950000Y30000000D03*
D20*
X56600000Y38600000D03*
X56600000Y41400000D03*
X59400000Y38600000D03*
X59400000Y41400000D03*
D15*
X14400000Y22000000D03*
X17600000Y22000000D03*
D21*
X49200000Y22000000D03*
X50800000Y22000000D03*
X49200000Y24200000D03*
X50800000Y24200000D03*
X49200000Y26400000D03*
X50800000Y26400000D03*
X52200000Y22000000D03*
X53800000Y22000000D03*
X52200000Y24200000D03*
X53800000Y24200000D03*
X52200000Y26400000D03*
X53800000Y26400000D03*
X23200000Y30000000D03*
X24800000Y30000000D03*
X23200000Y27000000D03*
X24800000Y27000000D03*
X39200000Y30000000D03*
X40800000Y30000000D03*
X39200000Y27000000D03*
X40800000Y27000000D03*
X34200000Y14000000D03*
X35800000Y14000000D03*
X37200000Y14000000D03*
X38800000Y14000000D03*
X49200000Y34000000D03*
X50800000Y34000000D03*
D22*
X59000000Y14000000D03*
X59000000Y18000000D03*
X65000000Y14000000D03*
X65000000Y18000000D03*
D10*
X64000000Y30000000D03*
X66540000Y30000000D03*
M02*
