M48
;DRILL file {DeerWatch-Carrier}
;FORMAT={-:-/ absolute / metric / decimal}
FMAT,2
METRIC
G90
T01C0.900
T02C1.000
T03C1.300
T04C3.200
%
T01
X8.750Y22.000
X11.250Y22.000
X42.750Y24.000
X45.250Y24.000
T02
X10.870Y42.000
X10.870Y44.540
X13.410Y42.000
X13.410Y44.540
X15.950Y42.000
X15.950Y44.540
X18.490Y42.000
X18.490Y44.540
X21.030Y42.000
X21.030Y44.540
X23.570Y42.000
X23.570Y44.540
X26.110Y42.000
X26.110Y44.540
X28.650Y42.000
X28.650Y44.540
X31.190Y42.000
X31.190Y44.540
X33.730Y42.000
X33.730Y44.540
X36.270Y42.000
X36.270Y44.540
X38.810Y42.000
X38.810Y44.540
X41.350Y42.000
X41.350Y44.540
X43.890Y42.000
X43.890Y44.540
X46.430Y42.000
X46.430Y44.540
X48.970Y42.000
X48.970Y44.540
X51.510Y42.000
X51.510Y44.540
X54.050Y42.000
X54.050Y44.540
X56.590Y42.000
X56.590Y44.540
X59.130Y42.000
X59.130Y44.540
X52.000Y6.000
X52.000Y8.540
X54.540Y6.000
X54.540Y8.540
X59.000Y14.000
X59.000Y18.000
X65.000Y14.000
X65.000Y18.000
X64.000Y30.000
X66.540Y30.000
T03
X8.000Y7.000
X13.080Y7.000
X24.000Y7.000
X29.080Y7.000
X34.160Y7.000
T04
X4.000Y4.000
X4.000Y46.000
X66.000Y4.000
X66.000Y46.000
M30
