%FSLAX46Y46*%
%MOMM*%
%LPD*%
%ADD10C,0.150000*%
D10*
X6200000Y4000000D02*
X6032535Y4841904D01*
X5555635Y5555635D01*
X4841904Y6032535D01*
X4000000Y6200000D01*
X3158096Y6032535D01*
X2444365Y5555635D01*
X1967465Y4841904D01*
X1800000Y4000000D01*
X1967465Y3158096D01*
X2444365Y2444365D01*
X3158096Y1967465D01*
X4000000Y1800000D01*
X4841904Y1967465D01*
X5555635Y2444365D01*
X6032535Y3158096D01*
X6200000Y4000000D01*
X6200000Y46000000D02*
X6032535Y46841904D01*
X5555635Y47555635D01*
X4841904Y48032535D01*
X4000000Y48200000D01*
X3158096Y48032535D01*
X2444365Y47555635D01*
X1967465Y46841904D01*
X1800000Y46000000D01*
X1967465Y45158096D01*
X2444365Y44444365D01*
X3158096Y43967465D01*
X4000000Y43800000D01*
X4841904Y43967465D01*
X5555635Y44444365D01*
X6032535Y45158096D01*
X6200000Y46000000D01*
X68200000Y4000000D02*
X68032535Y4841904D01*
X67555635Y5555635D01*
X66841904Y6032535D01*
X66000000Y6200000D01*
X65158096Y6032535D01*
X64444365Y5555635D01*
X63967465Y4841904D01*
X63800000Y4000000D01*
X63967465Y3158096D01*
X64444365Y2444365D01*
X65158096Y1967465D01*
X66000000Y1800000D01*
X66841904Y1967465D01*
X67555635Y2444365D01*
X68032535Y3158096D01*
X68200000Y4000000D01*
X68200000Y46000000D02*
X68032535Y46841904D01*
X67555635Y47555635D01*
X66841904Y48032535D01*
X66000000Y48200000D01*
X65158096Y48032535D01*
X64444365Y47555635D01*
X63967465Y46841904D01*
X63800000Y46000000D01*
X63967465Y45158096D01*
X64444365Y44444365D01*
X65158096Y43967465D01*
X66000000Y43800000D01*
X66841904Y43967465D01*
X67555635Y44444365D01*
X68032535Y45158096D01*
X68200000Y46000000D01*
X9270000Y40400000D02*
X60730000Y40400000D01*
X60730000Y46140000D01*
X9270000Y46140000D01*
X9270000Y40400000D01*
X9270000Y41600000D02*
X10470000Y40400000D01*
X10870000Y45000000D02*
X10870000Y46300000D01*
X11612857Y46300000D01*
X11798571Y46114286D01*
X11798571Y45835714D01*
X11612857Y45650000D01*
X10870000Y45650000D01*
X12207143Y46300000D02*
X12764286Y46300000D01*
X12485714Y46300000D02*
X12485714Y45000000D01*
X12207143Y45000000D02*
X12764286Y45000000D01*
X15252857Y46114286D02*
X14881429Y46300000D01*
X14510000Y46300000D01*
X14324286Y45928571D01*
X14324286Y45371429D01*
X14510000Y45000000D01*
X14881429Y45000000D01*
X15252857Y45185714D01*
X15252857Y45557143D01*
X14881429Y45557143D01*
X15475714Y45000000D02*
X15475714Y46300000D01*
X16218571Y46300000D01*
X16404286Y46114286D01*
X16404286Y45835714D01*
X16218571Y45650000D01*
X15475714Y45650000D01*
X16812857Y46300000D02*
X17370000Y46300000D01*
X17091429Y46300000D02*
X17091429Y45000000D01*
X16812857Y45000000D02*
X17370000Y45000000D01*
X17964286Y45000000D02*
X17778571Y45371429D01*
X17778571Y45928571D01*
X17964286Y46300000D01*
X18521429Y46300000D01*
X18707143Y45928571D01*
X18707143Y45371429D01*
X18521429Y45000000D01*
X17964286Y45000000D01*
X20824286Y46300000D02*
X20824286Y45371429D01*
X20638571Y45000000D01*
X20267143Y45000000D01*
X20081429Y45371429D01*
X21232857Y46300000D02*
X22161429Y46300000D01*
X21697143Y45742857D01*
X22161429Y45742857D02*
X22161429Y45185714D01*
X21975714Y45000000D01*
X21418571Y45000000D01*
X21232857Y45185714D01*
X5400000Y4000000D02*
X15680000Y4000000D01*
X15680000Y10200000D01*
X5400000Y10200000D01*
X5400000Y4000000D01*
X5685714Y12428571D02*
X5964286Y12800000D01*
X5964286Y11500000D01*
X5685714Y11500000D02*
X6242857Y11500000D01*
X6651429Y12614286D02*
X6837143Y12800000D01*
X7394286Y12800000D01*
X7580000Y12614286D01*
X7580000Y12242857D01*
X6651429Y11500000D01*
X7580000Y11500000D01*
X7802857Y12800000D02*
X8267143Y11500000D01*
X8731429Y12800000D01*
X10848571Y12800000D02*
X10848571Y11871429D01*
X10662857Y11500000D01*
X10291429Y11500000D01*
X10105714Y11871429D01*
X11442857Y12428571D02*
X11721429Y12800000D01*
X11721429Y11500000D01*
X11442857Y11500000D02*
X12000000Y11500000D01*
X6428571Y3257143D02*
X6428571Y3942857D01*
X6085714Y3600000D02*
X6771429Y3600000D01*
X10422857Y3600000D02*
X10937143Y3600000D01*
X21400000Y4000000D02*
X36760000Y4000000D01*
X36760000Y10200000D01*
X21400000Y10200000D01*
X21400000Y4000000D01*
X24928571Y12614286D02*
X24557143Y12800000D01*
X24185714Y12800000D01*
X24000000Y12428571D01*
X24000000Y11871429D01*
X24185714Y11500000D01*
X24557143Y11500000D01*
X24928571Y11685714D01*
X25151429Y11500000D02*
X25151429Y12428571D01*
X25615714Y12800000D01*
X26080000Y12428571D01*
X26080000Y11500000D01*
X25151429Y12057143D02*
X26080000Y12057143D01*
X26302857Y11500000D02*
X26302857Y12800000D01*
X27231429Y11500000D01*
X27231429Y12800000D01*
X29348571Y12800000D02*
X29348571Y11871429D01*
X29162857Y11500000D01*
X28791429Y11500000D01*
X28605714Y11871429D01*
X29757143Y12614286D02*
X29942857Y12800000D01*
X30500000Y12800000D01*
X30685714Y12614286D01*
X30685714Y12242857D01*
X29757143Y11500000D01*
X30685714Y11500000D01*
X50400000Y4400000D02*
X56140000Y4400000D01*
X56140000Y10140000D01*
X50400000Y10140000D01*
X50400000Y4400000D01*
X50400000Y5600000D02*
X51600000Y4400000D01*
X50500000Y10500000D02*
X50500000Y11700000D01*
X51185714Y11700000D01*
X51357143Y11528571D01*
X51357143Y11271429D01*
X51185714Y11100000D01*
X50500000Y11100000D01*
X50928571Y11100000D02*
X51357143Y10500000D01*
X51562857Y10500000D02*
X51562857Y11357143D01*
X51991429Y11700000D01*
X52420000Y11357143D01*
X52420000Y10500000D01*
X51562857Y11014286D02*
X52420000Y11014286D01*
X52625714Y10500000D02*
X52625714Y11700000D01*
X53140000Y11700000D01*
X53482857Y11357143D01*
X53482857Y10842857D01*
X53140000Y10500000D01*
X52625714Y10500000D01*
X53688571Y10500000D02*
X53688571Y11357143D01*
X54117143Y11700000D01*
X54545714Y11357143D01*
X54545714Y10500000D01*
X53688571Y11014286D02*
X54545714Y11014286D01*
X54751429Y10500000D02*
X54751429Y11700000D01*
X55437143Y11700000D01*
X55608571Y11528571D01*
X55608571Y11271429D01*
X55437143Y11100000D01*
X54751429Y11100000D01*
X55180000Y11100000D02*
X55608571Y10500000D01*
X57562857Y11700000D02*
X57562857Y10842857D01*
X57391429Y10500000D01*
X57048571Y10500000D01*
X56877143Y10842857D01*
X58625714Y10500000D02*
X58625714Y11700000D01*
X57940000Y10842857D01*
X58797143Y10842857D01*
X17495000Y28100000D02*
X22505000Y28100000D01*
X22505000Y31900000D01*
X17495000Y31900000D01*
X17495000Y28100000D01*
X17695000Y28100000D02*
X17695000Y29000000D01*
X15500000Y34700000D02*
X15500000Y33842857D01*
X15671429Y33500000D01*
X16185714Y33500000D01*
X16357143Y33842857D01*
X16357143Y34700000D01*
X16734286Y34357143D02*
X16991429Y34700000D01*
X16991429Y33500000D01*
X16734286Y33500000D02*
X17248571Y33500000D01*
X18688571Y33500000D02*
X18688571Y34700000D01*
X19374286Y34700000D01*
X19545714Y34528571D01*
X19545714Y34271429D01*
X19374286Y34100000D01*
X18688571Y34100000D01*
X19374286Y34100000D02*
X19545714Y33928571D01*
X19545714Y33671429D01*
X19374286Y33500000D01*
X18688571Y33500000D01*
X19751429Y34700000D02*
X19751429Y33842857D01*
X19922857Y33500000D01*
X20437143Y33500000D01*
X20608571Y33842857D01*
X20608571Y34700000D01*
X21671429Y34528571D02*
X21328571Y34700000D01*
X20985714Y34700000D01*
X20814286Y34357143D01*
X20814286Y33842857D01*
X20985714Y33500000D01*
X21328571Y33500000D01*
X21671429Y33671429D01*
X21877143Y33500000D02*
X21877143Y34700000D01*
X21877143Y34014286D02*
X22734286Y34700000D01*
X21877143Y34014286D02*
X22734286Y33500000D01*
X24860000Y34700000D02*
X24002857Y34700000D01*
X24002857Y34185714D01*
X24688571Y34185714D01*
X24860000Y34014286D01*
X24860000Y33671429D01*
X24688571Y33500000D01*
X24174286Y33500000D01*
X24002857Y33671429D01*
X25065714Y34700000D02*
X25494286Y33500000D01*
X25922857Y34700000D01*
X29400000Y27800000D02*
X36600000Y27800000D01*
X36600000Y32200000D01*
X29400000Y32200000D01*
X29400000Y27800000D01*
X30500000Y34200000D02*
X30500000Y33000000D01*
X31357143Y33000000D01*
X31734286Y33857143D02*
X31991429Y34200000D01*
X31991429Y33000000D01*
X31734286Y33000000D02*
X32248571Y33000000D01*
X30700000Y21100000D02*
X35300000Y21100000D01*
X35300000Y22900000D01*
X30700000Y22900000D01*
X30700000Y21100000D01*
X31500000Y23600000D02*
X31500000Y24600000D01*
X31928571Y24600000D01*
X32214286Y24314286D01*
X32214286Y23885714D01*
X31928571Y23600000D01*
X31500000Y23600000D01*
X32385714Y24457143D02*
X32528571Y24600000D01*
X32957143Y24600000D01*
X33100000Y24457143D01*
X33100000Y24171429D01*
X32385714Y23600000D01*
X33100000Y23600000D01*
X13200000Y22000000D02*
X13043381Y22988854D01*
X12588854Y23880913D01*
X11880913Y24588854D01*
X10988854Y25043381D01*
X10000000Y25200000D01*
X9011146Y25043381D01*
X8119087Y24588854D01*
X7411146Y23880913D01*
X6956619Y22988854D01*
X6800000Y22000000D01*
X6956619Y21011146D01*
X7411146Y20119087D01*
X8119087Y19411146D01*
X9011146Y18956619D01*
X10000000Y18800000D01*
X10988854Y18956619D01*
X11880913Y19411146D01*
X12588854Y20119087D01*
X13043381Y21011146D01*
X13200000Y22000000D01*
X8150000Y23200000D02*
X9350000Y23200000D01*
X8214286Y26857143D02*
X7928571Y27000000D01*
X7642857Y27000000D01*
X7500000Y26714286D01*
X7500000Y26285714D01*
X7642857Y26000000D01*
X7928571Y26000000D01*
X8214286Y26142857D01*
X8528571Y26714286D02*
X8742857Y27000000D01*
X8742857Y26000000D01*
X8528571Y26000000D02*
X8957143Y26000000D01*
X47200000Y24000000D02*
X47043381Y24988854D01*
X46588854Y25880913D01*
X45880913Y26588854D01*
X44988854Y27043381D01*
X44000000Y27200000D01*
X43011146Y27043381D01*
X42119087Y26588854D01*
X41411146Y25880913D01*
X40956619Y24988854D01*
X40800000Y24000000D01*
X40956619Y23011146D01*
X41411146Y22119087D01*
X42119087Y21411146D01*
X43011146Y20956619D01*
X44000000Y20800000D01*
X44988854Y20956619D01*
X45880913Y21411146D01*
X46588854Y22119087D01*
X47043381Y23011146D01*
X47200000Y24000000D01*
X42150000Y25200000D02*
X43350000Y25200000D01*
X42214286Y28857143D02*
X41928571Y29000000D01*
X41642857Y29000000D01*
X41500000Y28714286D01*
X41500000Y28285714D01*
X41642857Y28000000D01*
X41928571Y28000000D01*
X42214286Y28142857D01*
X42385714Y28857143D02*
X42528571Y29000000D01*
X42957143Y29000000D01*
X43100000Y28857143D01*
X43100000Y28571429D01*
X42385714Y28000000D01*
X43100000Y28000000D01*
X40600000Y30700000D02*
X47400000Y30700000D01*
X47400000Y37300000D01*
X40600000Y37300000D01*
X40600000Y30700000D01*
X40000000Y39100000D02*
X40000000Y38314286D01*
X40157143Y38000000D01*
X40628571Y38000000D01*
X40785714Y38314286D01*
X40785714Y39100000D01*
X40974286Y38942857D02*
X41131429Y39100000D01*
X41602857Y39100000D01*
X41760000Y38942857D01*
X41760000Y38628571D01*
X40974286Y38000000D01*
X41760000Y38000000D01*
X42922857Y39100000D02*
X43708571Y39100000D01*
X43315714Y38628571D01*
X43708571Y38628571D02*
X43708571Y38157143D01*
X43551429Y38000000D01*
X43080000Y38000000D01*
X42922857Y38157143D01*
X43897143Y39100000D02*
X44290000Y38000000D01*
X44682857Y39100000D01*
X44871429Y39100000D02*
X45657143Y39100000D01*
X45264286Y38628571D01*
X45657143Y38628571D02*
X45657143Y38157143D01*
X45500000Y38000000D01*
X45028571Y38000000D01*
X44871429Y38157143D01*
X27495000Y12100000D02*
X32505000Y12100000D01*
X32505000Y15900000D01*
X27495000Y15900000D01*
X27495000Y12100000D01*
X27695000Y12100000D02*
X27695000Y13000000D01*
X25500000Y18200000D02*
X25500000Y17342857D01*
X25671429Y17000000D01*
X26185714Y17000000D01*
X26357143Y17342857D01*
X26357143Y18200000D01*
X26562857Y18200000D02*
X27420000Y18200000D01*
X26991429Y17685714D01*
X27420000Y17685714D02*
X27420000Y17171429D01*
X27248571Y17000000D01*
X26734286Y17000000D01*
X26562857Y17171429D01*
X29545714Y18028571D02*
X29202857Y18200000D01*
X28860000Y18200000D01*
X28688571Y17857143D01*
X28688571Y17342857D01*
X28860000Y17000000D01*
X29202857Y17000000D01*
X29545714Y17171429D01*
X29751429Y17000000D02*
X29751429Y17857143D01*
X30180000Y18200000D01*
X30608571Y17857143D01*
X30608571Y17000000D01*
X29751429Y17514286D02*
X30608571Y17514286D01*
X30814286Y17000000D02*
X30814286Y18200000D01*
X31671429Y17000000D01*
X31671429Y18200000D01*
X13200000Y15150000D02*
X14800000Y15150000D01*
X14800000Y16850000D01*
X13200000Y16850000D01*
X13200000Y15150000D01*
X12128571Y17500000D02*
X12000000Y17757143D01*
X12000000Y18142857D01*
X12128571Y18400000D01*
X12514286Y18400000D01*
X12642857Y18142857D01*
X12642857Y17757143D01*
X12514286Y17500000D01*
X12128571Y17500000D01*
X12385714Y17757143D02*
X12642857Y17500000D01*
X12925714Y18142857D02*
X13118571Y18400000D01*
X13118571Y17500000D01*
X12925714Y17500000D02*
X13311429Y17500000D01*
X57200000Y29150000D02*
X58800000Y29150000D01*
X58800000Y30850000D01*
X57200000Y30850000D01*
X57200000Y29150000D01*
X56128571Y31500000D02*
X56000000Y31757143D01*
X56000000Y32142857D01*
X56128571Y32400000D01*
X56514286Y32400000D01*
X56642857Y32142857D01*
X56642857Y31757143D01*
X56514286Y31500000D01*
X56128571Y31500000D01*
X56385714Y31757143D02*
X56642857Y31500000D01*
X56797143Y32271429D02*
X56925714Y32400000D01*
X57311429Y32400000D01*
X57440000Y32271429D01*
X57440000Y32014286D01*
X56797143Y31500000D01*
X57440000Y31500000D01*
X55800000Y37800000D02*
X60200000Y37800000D01*
X60200000Y42200000D01*
X55800000Y42200000D01*
X55800000Y37800000D01*
X54500000Y43000000D02*
X54500000Y44100000D01*
X54971429Y44100000D01*
X55285714Y43785714D01*
X55285714Y43314286D01*
X54971429Y43000000D01*
X54500000Y43000000D01*
X55474286Y44100000D02*
X56260000Y44100000D01*
X55867143Y43628571D01*
X56260000Y43628571D02*
X56260000Y43157143D01*
X56102857Y43000000D01*
X55631429Y43000000D01*
X55474286Y43157143D01*
X57422857Y44100000D02*
X57422857Y43000000D01*
X58208571Y43000000D01*
X59182857Y44100000D02*
X58397143Y44100000D01*
X58397143Y43000000D01*
X59182857Y43000000D01*
X58397143Y43550000D02*
X58947143Y43550000D01*
X59371429Y43000000D02*
X59371429Y44100000D01*
X59842857Y44100000D01*
X60157143Y43785714D01*
X60157143Y43314286D01*
X59842857Y43000000D01*
X59371429Y43000000D01*
X13900000Y21100000D02*
X18100000Y21100000D01*
X18100000Y22900000D01*
X13900000Y22900000D01*
X13900000Y21100000D01*
X14500000Y23600000D02*
X14500000Y24600000D01*
X14928571Y24600000D01*
X15214286Y24314286D01*
X15214286Y23885714D01*
X14928571Y23600000D01*
X14500000Y23600000D01*
X15528571Y24314286D02*
X15742857Y24600000D01*
X15742857Y23600000D01*
X15528571Y23600000D02*
X15957143Y23600000D01*
X48000000Y28500000D02*
X48000000Y29500000D01*
X48571429Y29500000D01*
X48714286Y29357143D01*
X48714286Y29142857D01*
X48571429Y29000000D01*
X48000000Y29000000D01*
X48357143Y29000000D02*
X48714286Y28500000D01*
X49028571Y29214286D02*
X49242857Y29500000D01*
X49242857Y28500000D01*
X49028571Y28500000D02*
X49457143Y28500000D01*
X49914286Y29000000D02*
X50342857Y29000000D01*
X51371429Y29357143D02*
X51228571Y29500000D01*
X50800000Y29500000D01*
X50657143Y29214286D01*
X50657143Y28642857D01*
X50800000Y28500000D01*
X51228571Y28500000D01*
X51371429Y28642857D01*
X51371429Y28928571D01*
X51228571Y29071429D01*
X50657143Y29071429D01*
X59000000Y13000000D02*
X65000000Y13000000D01*
X65000000Y19000000D01*
X59000000Y19000000D01*
X59000000Y13000000D01*
X59285714Y21442857D02*
X58971429Y21600000D01*
X58657143Y21600000D01*
X58500000Y21442857D01*
X58500000Y21207143D01*
X58657143Y21050000D01*
X59128571Y21050000D01*
X59285714Y20892857D01*
X59285714Y20657143D01*
X59128571Y20500000D01*
X58657143Y20500000D01*
X58500000Y20657143D01*
X59474286Y21600000D02*
X59662857Y20500000D01*
X59867143Y21128571D01*
X60071429Y20500000D01*
X60260000Y21600000D01*
X60605714Y21285714D02*
X60841429Y21600000D01*
X60841429Y20500000D01*
X60605714Y20500000D02*
X61077143Y20500000D01*
X62397143Y20500000D02*
X62397143Y21600000D01*
X62790000Y21128571D01*
X63182857Y21600000D01*
X63182857Y20500000D01*
X63371429Y21600000D02*
X63371429Y20814286D01*
X63528571Y20500000D01*
X64000000Y20500000D01*
X64157143Y20814286D01*
X64157143Y21600000D01*
X64345714Y21600000D02*
X65131429Y21600000D01*
X64738571Y21600000D02*
X64738571Y20500000D01*
X66105714Y21600000D02*
X65320000Y21600000D01*
X65320000Y20500000D01*
X66105714Y20500000D01*
X65320000Y21050000D02*
X65870000Y21050000D01*
X61500000Y33000000D02*
X61500000Y34000000D01*
X62071429Y34000000D01*
X62214286Y33857143D01*
X62214286Y33642857D01*
X62071429Y33500000D01*
X61500000Y33500000D01*
X62071429Y33500000D02*
X62214286Y33357143D01*
X62214286Y33142857D01*
X62071429Y33000000D01*
X61500000Y33000000D01*
X62385714Y34000000D02*
X63100000Y34000000D01*
X62385714Y33000000D01*
X63100000Y33000000D01*
X63414286Y33714286D02*
X63628571Y34000000D01*
X63628571Y33000000D01*
X63414286Y33000000D02*
X63842857Y33000000D01*
X8000000Y46800000D02*
X8000000Y48400000D01*
X8685714Y48400000D01*
X9142857Y47942857D01*
X9142857Y47257143D01*
X8685714Y46800000D01*
X8000000Y46800000D01*
X10560000Y48400000D02*
X9417143Y48400000D01*
X9417143Y46800000D01*
X10560000Y46800000D01*
X9417143Y47600000D02*
X10217143Y47600000D01*
X11977143Y48400000D02*
X10834286Y48400000D01*
X10834286Y46800000D01*
X11977143Y46800000D01*
X10834286Y47600000D02*
X11634286Y47600000D01*
X12251429Y46800000D02*
X12251429Y48400000D01*
X13165714Y48400000D01*
X13394286Y48171429D01*
X13394286Y47828571D01*
X13165714Y47600000D01*
X12251429Y47600000D01*
X12822857Y47600000D02*
X13394286Y46800000D01*
X13668571Y48400000D02*
X13942857Y46800000D01*
X14240000Y47714286D01*
X14537143Y46800000D01*
X14811429Y48400000D01*
X15085714Y46800000D02*
X15085714Y47942857D01*
X15657143Y48400000D01*
X16228571Y47942857D01*
X16228571Y46800000D01*
X15085714Y47485714D02*
X16228571Y47485714D01*
X16502857Y48400000D02*
X17645714Y48400000D01*
X17074286Y48400000D02*
X17074286Y46800000D01*
X19062857Y48171429D02*
X18605714Y48400000D01*
X18148571Y48400000D01*
X17920000Y47942857D01*
X17920000Y47257143D01*
X18148571Y46800000D01*
X18605714Y46800000D01*
X19062857Y47028571D01*
X19337143Y46800000D02*
X19337143Y48400000D01*
X20480000Y46800000D02*
X20480000Y48400000D01*
X19337143Y47600000D02*
X20480000Y47600000D01*
X23314286Y48171429D02*
X22857143Y48400000D01*
X22400000Y48400000D01*
X22171429Y47942857D01*
X22171429Y47257143D01*
X22400000Y46800000D01*
X22857143Y46800000D01*
X23314286Y47028571D01*
X23588571Y46800000D02*
X23588571Y47942857D01*
X24160000Y48400000D01*
X24731429Y47942857D01*
X24731429Y46800000D01*
X23588571Y47485714D02*
X24731429Y47485714D01*
X25005714Y46800000D02*
X25005714Y48400000D01*
X25920000Y48400000D01*
X26148571Y48171429D01*
X26148571Y47828571D01*
X25920000Y47600000D01*
X25005714Y47600000D01*
X25577143Y47600000D02*
X26148571Y46800000D01*
X26422857Y46800000D02*
X26422857Y48400000D01*
X27337143Y48400000D01*
X27565714Y48171429D01*
X27565714Y47828571D01*
X27337143Y47600000D01*
X26422857Y47600000D01*
X26994286Y47600000D02*
X27565714Y46800000D01*
X28068571Y48400000D02*
X28754286Y48400000D01*
X28411429Y48400000D02*
X28411429Y46800000D01*
X28068571Y46800000D02*
X28754286Y46800000D01*
X30400000Y48400000D02*
X29257143Y48400000D01*
X29257143Y46800000D01*
X30400000Y46800000D01*
X29257143Y47600000D02*
X30057143Y47600000D01*
X30674286Y46800000D02*
X30674286Y48400000D01*
X31588571Y48400000D01*
X31817143Y48171429D01*
X31817143Y47828571D01*
X31588571Y47600000D01*
X30674286Y47600000D01*
X31245714Y47600000D02*
X31817143Y46800000D01*
X33508571Y46800000D02*
X33508571Y48400000D01*
X34422857Y48400000D01*
X34651429Y48171429D01*
X34651429Y47828571D01*
X34422857Y47600000D01*
X33508571Y47600000D01*
X34080000Y47600000D02*
X34651429Y46800000D01*
X36068571Y48400000D02*
X34925714Y48400000D01*
X34925714Y46800000D01*
X36068571Y46800000D01*
X34925714Y47600000D02*
X35725714Y47600000D01*
X36342857Y48400000D02*
X36914286Y46800000D01*
X37485714Y48400000D01*
X39177143Y46800000D02*
X39177143Y47942857D01*
X39748571Y48400000D01*
X40320000Y47942857D01*
X40320000Y46800000D01*
X39177143Y47485714D02*
X40320000Y47485714D01*
X8785714Y1542857D02*
X8471429Y1700000D01*
X8157143Y1700000D01*
X8000000Y1542857D01*
X8000000Y1307143D01*
X8157143Y1150000D01*
X8628571Y1150000D01*
X8785714Y992857D01*
X8785714Y757143D01*
X8628571Y600000D01*
X8157143Y600000D01*
X8000000Y757143D01*
X9760000Y1700000D02*
X8974286Y1700000D01*
X8974286Y600000D01*
X9760000Y600000D01*
X8974286Y1150000D02*
X9524286Y1150000D01*
X9948571Y600000D02*
X9948571Y1385714D01*
X10341429Y1700000D01*
X10734286Y1385714D01*
X10734286Y600000D01*
X9948571Y1071429D02*
X10734286Y1071429D01*
X11708571Y1542857D02*
X11394286Y1700000D01*
X11080000Y1700000D01*
X10922857Y1542857D01*
X10922857Y1307143D01*
X11080000Y1150000D01*
X11551429Y1150000D01*
X11708571Y992857D01*
X11708571Y757143D01*
X11551429Y600000D01*
X11080000Y600000D01*
X10922857Y757143D01*
X11897143Y1542857D02*
X12054286Y1700000D01*
X12525714Y1700000D01*
X12682857Y1542857D01*
X12682857Y1228571D01*
X11897143Y600000D01*
X12682857Y600000D01*
X13028571Y600000D02*
X12871429Y914286D01*
X12871429Y1385714D01*
X13028571Y1700000D01*
X13500000Y1700000D01*
X13657143Y1385714D01*
X13657143Y914286D01*
X13500000Y600000D01*
X13028571Y600000D01*
X12871429Y757143D02*
X13657143Y1542857D01*
X13845714Y1542857D02*
X14002857Y1700000D01*
X14474286Y1700000D01*
X14631429Y1542857D01*
X14631429Y1228571D01*
X13845714Y600000D01*
X14631429Y600000D01*
X15605714Y1700000D02*
X14820000Y1700000D01*
X14820000Y1228571D01*
X15448571Y1228571D01*
X15605714Y1071429D01*
X15605714Y757143D01*
X15448571Y600000D01*
X14977143Y600000D01*
X14820000Y757143D01*
X17742857Y1542857D02*
X17900000Y1700000D01*
X18371429Y1700000D01*
X18528571Y1542857D01*
X18528571Y1228571D01*
X17742857Y600000D01*
X18528571Y600000D01*
X18874286Y1150000D02*
X19345714Y1150000D01*
X19691429Y1700000D02*
X19691429Y600000D01*
X20477143Y600000D01*
X20665714Y600000D02*
X20665714Y1385714D01*
X21058571Y1700000D01*
X21451429Y1385714D01*
X21451429Y600000D01*
X20665714Y1071429D02*
X21451429Y1071429D01*
X21640000Y1700000D02*
X22032857Y1150000D01*
X22425714Y1700000D01*
X22032857Y1150000D02*
X22032857Y600000D01*
X23400000Y1700000D02*
X22614286Y1700000D01*
X22614286Y600000D01*
X23400000Y600000D01*
X22614286Y1150000D02*
X23164286Y1150000D01*
X23588571Y600000D02*
X23588571Y1700000D01*
X24217143Y1700000D01*
X24374286Y1542857D01*
X24374286Y1307143D01*
X24217143Y1150000D01*
X23588571Y1150000D01*
X23981429Y1150000D02*
X24374286Y600000D01*
X26322857Y1700000D02*
X25537143Y1700000D01*
X25537143Y600000D01*
X25537143Y1150000D02*
X26087143Y1150000D01*
X26511429Y600000D02*
X26511429Y1700000D01*
X27140000Y1700000D01*
X27297143Y1542857D01*
X27297143Y1307143D01*
X27140000Y1150000D01*
X26511429Y1150000D01*
X26904286Y1150000D02*
X27297143Y600000D01*
X28114286Y600000D02*
X28114286Y1700000D01*
X27485714Y914286D01*
X28271429Y914286D01*
X29591429Y1385714D02*
X29827143Y1700000D01*
X29827143Y600000D01*
X29591429Y600000D02*
X30062857Y600000D01*
X30754286Y600000D02*
X30848571Y600000D01*
X30848571Y694286D01*
X30754286Y694286D01*
X30754286Y600000D01*
X32168571Y1542857D02*
X32011429Y1700000D01*
X31540000Y1700000D01*
X31382857Y1385714D01*
X31382857Y757143D01*
X31540000Y600000D01*
X32011429Y600000D01*
X32168571Y757143D01*
X32168571Y1071429D01*
X32011429Y1228571D01*
X31382857Y1228571D01*
X32357143Y600000D02*
X32357143Y1700000D01*
X32750000Y1228571D01*
X33142857Y1700000D01*
X33142857Y600000D01*
X33331429Y600000D02*
X33331429Y1700000D01*
X33724286Y1228571D01*
X34117143Y1700000D01*
X34117143Y600000D01*
X50628571Y1700000D02*
X50628571Y914286D01*
X50471429Y600000D01*
X50157143Y600000D01*
X50000000Y914286D01*
X50974286Y1700000D02*
X50974286Y600000D01*
X51760000Y600000D01*
X52734286Y1542857D02*
X52420000Y1700000D01*
X52105714Y1700000D01*
X51948571Y1385714D01*
X51948571Y914286D01*
X52105714Y600000D01*
X52420000Y600000D01*
X52734286Y757143D01*
X52922857Y600000D02*
X52922857Y1700000D01*
X53551429Y1700000D01*
X53708571Y1542857D01*
X53708571Y1307143D01*
X53551429Y1150000D01*
X52922857Y1150000D01*
X54682857Y1542857D02*
X54368571Y1700000D01*
X54054286Y1700000D01*
X53897143Y1385714D01*
X53897143Y914286D01*
X54054286Y600000D01*
X54368571Y600000D01*
X54682857Y757143D01*
X54871429Y600000D02*
X54871429Y1700000D01*
X55500000Y1700000D01*
X55657143Y1542857D01*
X55657143Y1307143D01*
X55500000Y1150000D01*
X54871429Y1150000D01*
X55500000Y1150000D02*
X55657143Y992857D01*
X55657143Y757143D01*
X55500000Y600000D01*
X54871429Y600000D01*
M02*
