%TF.GenerationSoftware,KiCad,Pcbnew,10.0.3*%
%TF.CreationDate,2026-06-21T22:44:42-04:00*%
%TF.ProjectId,DeerWatch-Carrier,44656572-5761-4746-9368-2d4361727269,rev?*%
%TF.SameCoordinates,Original*%
%TF.FileFunction,Soldermask,Top*%
%TF.FilePolarity,Negative*%
%FSLAX46Y46*%
G04 Gerber Fmt 4.6, Leading zero omitted, Abs format (unit mm)*
G04 Created by KiCad (PCBNEW 10.0.3) date 2026-06-21 22:44:42*
%MOMM*%
%LPD*%
G01*
G04 APERTURE LIST*
G04 Aperture macros list*
%AMRoundRect*
0 Rectangle with rounded corners*
0 $1 Rounding radius*
0 $2 $3 $4 $5 $6 $7 $8 $9 X,Y pos of 4 corners*
0 Add a 4 corners polygon primitive as box body*
4,1,4,$2,$3,$4,$5,$6,$7,$8,$9,$2,$3,0*
0 Add four circle primitives for the rounded corners*
1,1,$1+$1,$2,$3*
1,1,$1+$1,$4,$5*
1,1,$1+$1,$6,$7*
1,1,$1+$1,$8,$9*
0 Add four rect primitives between the rounded corners*
20,1,$1+$1,$2,$3,$4,$5,0*
20,1,$1+$1,$4,$5,$6,$7,0*
20,1,$1+$1,$6,$7,$8,$9,0*
20,1,$1+$1,$8,$9,$2,$3,0*%
G04 Aperture macros list end*
%ADD10C,3.300000*%
%ADD11C,2.700000*%
%ADD12C,1.800000*%
%ADD13RoundRect,0.140000X-0.660000X-0.210000X0.660000X-0.210000X0.660000X0.210000X-0.660000X0.210000X0*%
%ADD14RoundRect,0.620000X-0.930000X-1.180000X0.930000X-1.180000X0.930000X1.180000X-0.930000X1.180000X0*%
%ADD15RoundRect,0.500000X-0.750000X-1.050000X0.750000X-1.050000X0.750000X1.050000X-0.750000X1.050000X0*%
%ADD16RoundRect,0.340000X-0.510000X-0.610000X0.510000X-0.610000X0.510000X0.610000X-0.510000X0.610000X0*%
%ADD17C,2.300000*%
%ADD18RoundRect,0.260000X-0.540000X-0.390000X0.540000X-0.390000X0.540000X0.390000X-0.540000X0.390000X0*%
%ADD19RoundRect,0.420000X-1.430000X-0.630000X1.430000X-0.630000X1.430000X0.630000X-1.430000X0.630000X0*%
%ADD20RoundRect,0.200000X-0.300000X-0.350000X0.300000X-0.350000X0.300000X0.350000X-0.300000X0.350000X0*%
%ADD21RoundRect,0.220000X-0.330000X-0.330000X0.330000X-0.330000X0.330000X0.330000X-0.330000X0.330000X0*%
%ADD22RoundRect,0.380000X-0.570000X-0.770000X0.570000X-0.770000X0.570000X0.770000X-0.570000X0.770000X0*%
%ADD23RoundRect,0.200000X-0.300000X-0.325000X0.300000X-0.325000X0.300000X0.325000X-0.300000X0.325000X0*%
%ADD24C,1.700000*%
G04 APERTURE END LIST*
D10*
%TO.C,MH1*%
X4000000Y-46000000D03*
%TD*%
%TO.C,MH2*%
X4000000Y-4000000D03*
%TD*%
%TO.C,MH3*%
X66000000Y-46000000D03*
%TD*%
%TO.C,MH4*%
X66000000Y-4000000D03*
%TD*%
D11*
%TO.C,J1*%
X5460000Y-43000000D03*
X10540000Y-43000000D03*
%TD*%
%TO.C,J2*%
X18920000Y-43000000D03*
X24000000Y-43000000D03*
X29080000Y-43000000D03*
%TD*%
D12*
%TO.C,J3*%
X10870000Y-6730000D03*
X10870000Y-9270000D03*
X13410000Y-6730000D03*
X13410000Y-9270000D03*
X15950000Y-6730000D03*
X15950000Y-9270000D03*
X18490000Y-6730000D03*
X18490000Y-9270000D03*
X21030000Y-6730000D03*
X21030000Y-9270000D03*
X23570000Y-6730000D03*
X23570000Y-9270000D03*
X26110000Y-6730000D03*
X26110000Y-9270000D03*
X28650000Y-6730000D03*
X28650000Y-9270000D03*
X31190000Y-6730000D03*
X31190000Y-9270000D03*
X33730000Y-6730000D03*
X33730000Y-9270000D03*
X36270000Y-6730000D03*
X36270000Y-9270000D03*
X38810000Y-6730000D03*
X38810000Y-9270000D03*
X41350000Y-6730000D03*
X41350000Y-9270000D03*
X43890000Y-6730000D03*
X43890000Y-9270000D03*
X46430000Y-6730000D03*
X46430000Y-9270000D03*
X48970000Y-6730000D03*
X48970000Y-9270000D03*
X51510000Y-6730000D03*
X51510000Y-9270000D03*
X54050000Y-6730000D03*
X54050000Y-9270000D03*
X56590000Y-6730000D03*
X56590000Y-9270000D03*
X59130000Y-6730000D03*
X59130000Y-9270000D03*
%TD*%
%TO.C,J4*%
X50730000Y-42730000D03*
X53270000Y-42730000D03*
X50730000Y-45270000D03*
X53270000Y-45270000D03*
%TD*%
D13*
%TO.C,U1*%
X17300000Y-18095000D03*
X17300000Y-19365000D03*
X17300000Y-20635000D03*
X17300000Y-21905000D03*
X22700000Y-18095000D03*
X22700000Y-19365000D03*
X22700000Y-20635000D03*
X22700000Y-21905000D03*
D14*
X20000000Y-20000000D03*
%TD*%
D15*
%TO.C,L1*%
X30400000Y-20000000D03*
X35600000Y-20000000D03*
%TD*%
D16*
%TO.C,D2*%
X30700000Y-28000000D03*
X35300000Y-28000000D03*
%TD*%
D17*
%TO.C,C1*%
X8250000Y-28000000D03*
X11750000Y-28000000D03*
%TD*%
%TO.C,C2*%
X42250000Y-26000000D03*
X45750000Y-26000000D03*
%TD*%
D18*
%TO.C,U2*%
X41700000Y-19150000D03*
X44000000Y-19150000D03*
X46300000Y-19150000D03*
D19*
X44000000Y-12850000D03*
%TD*%
D13*
%TO.C,U3*%
X27300000Y-34095000D03*
X27300000Y-35365000D03*
X27300000Y-36635000D03*
X27300000Y-37905000D03*
X32700000Y-34095000D03*
X32700000Y-35365000D03*
X32700000Y-36635000D03*
X32700000Y-37905000D03*
%TD*%
D20*
%TO.C,Q1*%
X13050000Y-35000000D03*
X14950000Y-35000000D03*
X14000000Y-33000000D03*
%TD*%
%TO.C,Q2*%
X57050000Y-21000000D03*
X58950000Y-21000000D03*
X58000000Y-19000000D03*
%TD*%
D21*
%TO.C,D3*%
X61600000Y-11400000D03*
X61600000Y-8600000D03*
X64400000Y-8600000D03*
X64400000Y-11400000D03*
%TD*%
D22*
%TO.C,D1*%
X15700000Y-28000000D03*
X20300000Y-28000000D03*
%TD*%
D23*
%TO.C,R1*%
X49200000Y-28000000D03*
X50800000Y-28000000D03*
%TD*%
%TO.C,R2*%
X49200000Y-25800000D03*
X50800000Y-25800000D03*
%TD*%
%TO.C,R3*%
X49200000Y-23600000D03*
X50800000Y-23600000D03*
%TD*%
%TO.C,R4*%
X52200000Y-28000000D03*
X53800000Y-28000000D03*
%TD*%
%TO.C,R5*%
X52200000Y-25800000D03*
X53800000Y-25800000D03*
%TD*%
%TO.C,R6*%
X52200000Y-23600000D03*
X53800000Y-23600000D03*
%TD*%
%TO.C,C3*%
X5200000Y-20000000D03*
X6800000Y-20000000D03*
%TD*%
%TO.C,C4*%
X5200000Y-17000000D03*
X6800000Y-17000000D03*
%TD*%
%TO.C,C5*%
X9200000Y-34000000D03*
X10800000Y-34000000D03*
%TD*%
%TO.C,C6*%
X39200000Y-23000000D03*
X40800000Y-23000000D03*
%TD*%
%TO.C,C7*%
X34200000Y-36000000D03*
X35800000Y-36000000D03*
%TD*%
%TO.C,C8*%
X37200000Y-36000000D03*
X38800000Y-36000000D03*
%TD*%
%TO.C,C9*%
X49200000Y-16000000D03*
X50800000Y-16000000D03*
%TD*%
D24*
%TO.C,SW1*%
X58750000Y-31750000D03*
X65250000Y-31750000D03*
X58750000Y-36250000D03*
X65250000Y-36250000D03*
%TD*%
D12*
%TO.C,BZ1*%
X62730000Y-20000000D03*
X65270000Y-20000000D03*
%TD*%
M02*
