M48
; DRILL file KiCad 10.0.3 date 2026-06-21T22:44:42
; FORMAT={-:-/ absolute / metric / decimal}
; #@! TF.CreationDate,2026-06-21T22:44:42-04:00
; #@! TF.GenerationSoftware,Kicad,Pcbnew,10.0.3
; #@! TF.FileFunction,MixedPlating,1,2
FMAT,2
METRIC
; #@! TA.AperFunction,Plated,PTH,ViaDrill
T1C0.400
; #@! TA.AperFunction,Plated,PTH,ComponentDrill
T2C0.900
; #@! TA.AperFunction,Plated,PTH,ComponentDrill
T3C1.000
; #@! TA.AperFunction,Plated,PTH,ComponentDrill
T4C1.300
; #@! TA.AperFunction,NonPlated,NPTH,ComponentDrill
T5C3.200
%
G90
G05
T1
X22.7Y-18.095
X22.7Y-21.905
X30.4Y-20.0
X35.6Y-20.0
T2
X58.75Y-31.75
X58.75Y-36.25
X65.25Y-31.75
X65.25Y-36.25
T3
X8.25Y-28.0
X10.87Y-6.73
X10.87Y-9.27
X11.75Y-28.0
X13.41Y-6.73
X13.41Y-9.27
X15.95Y-6.73
X15.95Y-9.27
X18.49Y-6.73
X18.49Y-9.27
X21.03Y-6.73
X21.03Y-9.27
X23.57Y-6.73
X23.57Y-9.27
X26.11Y-6.73
X26.11Y-9.27
X28.65Y-6.73
X28.65Y-9.27
X31.19Y-6.73
X31.19Y-9.27
X33.73Y-6.73
X33.73Y-9.27
X36.27Y-6.73
X36.27Y-9.27
X38.81Y-6.73
X38.81Y-9.27
X41.35Y-6.73
X41.35Y-9.27
X42.25Y-26.0
X43.89Y-6.73
X43.89Y-9.27
X45.75Y-26.0
X46.43Y-6.73
X46.43Y-9.27
X48.97Y-6.73
X48.97Y-9.27
X50.73Y-42.73
X50.73Y-45.27
X51.51Y-6.73
X51.51Y-9.27
X53.27Y-42.73
X53.27Y-45.27
X54.05Y-6.73
X54.05Y-9.27
X56.59Y-6.73
X56.59Y-9.27
X59.13Y-6.73
X59.13Y-9.27
X62.73Y-20.0
X65.27Y-20.0
T4
X5.46Y-43.0
X10.54Y-43.0
X18.92Y-43.0
X24.0Y-43.0
X29.08Y-43.0
T5
X4.0Y-4.0
X4.0Y-46.0
X66.0Y-4.0
X66.0Y-46.0
M30
