%TF.GenerationSoftware,KiCad,Pcbnew,10.0.3*%
%TF.CreationDate,2026-06-21T22:44:42-04:00*%
%TF.ProjectId,DeerWatch-Carrier,44656572-5761-4746-9368-2d4361727269,rev?*%
%TF.SameCoordinates,Original*%
%TF.FileFunction,Copper,L2,Bot*%
%TF.FilePolarity,Positive*%
%FSLAX46Y46*%
G04 Gerber Fmt 4.6, Leading zero omitted, Abs format (unit mm)*
G04 Created by KiCad (PCBNEW 10.0.3) date 2026-06-21 22:44:42*
%MOMM*%
%LPD*%
G01*
G04 APERTURE LIST*
%TA.AperFunction,ComponentPad*%
%ADD10C,2.600000*%
%TD*%
%TA.AperFunction,ComponentPad*%
%ADD11C,1.700000*%
%TD*%
%TA.AperFunction,ComponentPad*%
%ADD12C,2.200000*%
%TD*%
%TA.AperFunction,ComponentPad*%
%ADD13C,1.600000*%
%TD*%
%TA.AperFunction,ViaPad*%
%ADD14C,0.800000*%
%TD*%
%TA.AperFunction,Conductor*%
%ADD15C,0.600000*%
%TD*%
%TA.AperFunction,Conductor*%
%ADD16C,0.800000*%
%TD*%
G04 APERTURE END LIST*
D10*
%TO.P,J1,1*%
%TO.N,+12V*%
X5460000Y-43000000D03*
%TO.P,J1,2*%
%TO.N,GND*%
X10540000Y-43000000D03*
%TD*%
%TO.P,J2,1*%
%TO.N,CANH*%
X18920000Y-43000000D03*
%TO.P,J2,2*%
%TO.N,CANL*%
X24000000Y-43000000D03*
%TO.P,J2,3*%
%TO.N,GND*%
X29080000Y-43000000D03*
%TD*%
D11*
%TO.P,J3,1*%
%TO.N,+3V3*%
X10870000Y-6730000D03*
%TO.P,J3,2*%
%TO.N,+5V*%
X10870000Y-9270000D03*
%TO.P,J3,3*%
%TO.N,N/C*%
X13410000Y-6730000D03*
%TO.P,J3,4*%
%TO.N,+5V*%
X13410000Y-9270000D03*
%TO.P,J3,5*%
%TO.N,N/C*%
X15950000Y-6730000D03*
%TO.P,J3,6*%
%TO.N,GND*%
X15950000Y-9270000D03*
%TO.P,J3,7*%
%TO.N,N/C*%
X18490000Y-6730000D03*
%TO.P,J3,8*%
X18490000Y-9270000D03*
%TO.P,J3,9*%
%TO.N,GND*%
X21030000Y-6730000D03*
%TO.P,J3,10*%
%TO.N,N/C*%
X21030000Y-9270000D03*
%TO.P,J3,11*%
X23570000Y-6730000D03*
%TO.P,J3,12*%
X23570000Y-9270000D03*
%TO.P,J3,13*%
X26110000Y-6730000D03*
%TO.P,J3,14*%
%TO.N,GND*%
X26110000Y-9270000D03*
%TO.P,J3,15*%
%TO.N,N/C*%
X28650000Y-6730000D03*
%TO.P,J3,16*%
X28650000Y-9270000D03*
%TO.P,J3,17*%
%TO.N,+3V3*%
X31190000Y-6730000D03*
%TO.P,J3,18*%
%TO.N,N/C*%
X31190000Y-9270000D03*
%TO.P,J3,19*%
X33730000Y-6730000D03*
%TO.P,J3,20*%
%TO.N,GND*%
X33730000Y-9270000D03*
%TO.P,J3,21*%
%TO.N,N/C*%
X36270000Y-6730000D03*
%TO.P,J3,22*%
X36270000Y-9270000D03*
%TO.P,J3,23*%
X38810000Y-6730000D03*
%TO.P,J3,24*%
X38810000Y-9270000D03*
%TO.P,J3,25*%
%TO.N,GND*%
X41350000Y-6730000D03*
%TO.P,J3,26*%
%TO.N,N/C*%
X41350000Y-9270000D03*
%TO.P,J3,27*%
X43890000Y-6730000D03*
%TO.P,J3,28*%
X43890000Y-9270000D03*
%TO.P,J3,29*%
X46430000Y-6730000D03*
%TO.P,J3,30*%
%TO.N,GND*%
X46430000Y-9270000D03*
%TO.P,J3,31*%
%TO.N,N/C*%
X48970000Y-6730000D03*
%TO.P,J3,32*%
X48970000Y-9270000D03*
%TO.P,J3,33*%
X51510000Y-6730000D03*
%TO.P,J3,34*%
%TO.N,GND*%
X51510000Y-9270000D03*
%TO.P,J3,35*%
%TO.N,N/C*%
X54050000Y-6730000D03*
%TO.P,J3,36*%
X54050000Y-9270000D03*
%TO.P,J3,37*%
X56590000Y-6730000D03*
%TO.P,J3,38*%
X56590000Y-9270000D03*
%TO.P,J3,39*%
%TO.N,GND*%
X59130000Y-6730000D03*
%TO.P,J3,40*%
%TO.N,N/C*%
X59130000Y-9270000D03*
%TD*%
%TO.P,J4,1*%
%TO.N,+5V*%
X50730000Y-42730000D03*
%TO.P,J4,2*%
%TO.N,GND*%
X53270000Y-42730000D03*
%TO.P,J4,3*%
%TO.N,N/C*%
X50730000Y-45270000D03*
%TO.P,J4,4*%
X53270000Y-45270000D03*
%TD*%
D12*
%TO.P,C1,1*%
%TO.N,+12V*%
X8250000Y-28000000D03*
%TO.P,C1,2*%
%TO.N,GND*%
X11750000Y-28000000D03*
%TD*%
%TO.P,C2,1*%
%TO.N,+5V*%
X42250000Y-26000000D03*
%TO.P,C2,2*%
%TO.N,GND*%
X45750000Y-26000000D03*
%TD*%
D13*
%TO.P,SW1,1*%
%TO.N,GND*%
X58750000Y-31750000D03*
%TO.P,SW1,2*%
%TO.N,N/C*%
X65250000Y-31750000D03*
%TO.P,SW1,3*%
%TO.N,GND*%
X58750000Y-36250000D03*
%TO.P,SW1,4*%
%TO.N,N/C*%
X65250000Y-36250000D03*
%TD*%
D11*
%TO.P,BZ1,1*%
%TO.N,N/C*%
X62730000Y-20000000D03*
%TO.P,BZ1,2*%
%TO.N,GND*%
X65270000Y-20000000D03*
%TD*%
D14*
%TO.N,+12V*%
X22700000Y-18095000D03*
%TO.N,+5V*%
X22700000Y-21905000D03*
X30400000Y-20000000D03*
X35600000Y-20000000D03*
%TD*%
%TO.N,+12V*%
D15*
X5460000Y-43000000D02*
X3000000Y-43000000D01*
X3000000Y-43000000D02*
X3000000Y-28000000D01*
X3000000Y-28000000D02*
X8250000Y-28000000D01*
X8250000Y-28000000D02*
X8250000Y-15000000D01*
X8250000Y-15000000D02*
X22700000Y-15000000D01*
X22700000Y-15000000D02*
X22700000Y-18095000D01*
%TO.N,+5V*%
D16*
X22700000Y-21905000D02*
X27500000Y-22000000D01*
X27500000Y-22000000D02*
X30400000Y-20000000D01*
X30400000Y-20000000D02*
X35600000Y-20000000D01*
X35600000Y-20000000D02*
X38000000Y-22000000D01*
X38000000Y-22000000D02*
X38000000Y-26000000D01*
X38000000Y-26000000D02*
X42250000Y-26000000D01*
%TD*%
M02*
