%TF.GenerationSoftware,KiCad,Pcbnew,10.0.3*%
%TF.CreationDate,2026-06-21T22:44:42-04:00*%
%TF.ProjectId,DeerWatch-Carrier,44656572-5761-4746-9368-2d4361727269,rev?*%
%TF.SameCoordinates,Original*%
%TF.FileFunction,Paste,Top*%
%TF.FilePolarity,Positive*%
%FSLAX46Y46*%
G04 Gerber Fmt 4.6, Leading zero omitted, Abs format (unit mm)*
G04 Created by KiCad (PCBNEW 10.0.3) date 2026-06-21 22:44:42*
%MOMM*%
%LPD*%
G01*
G04 APERTURE LIST*
G04 Aperture macros list*
%AMRoundRect*
0 Rectangle with rounded corners*
0 $1 Rounding radius*
0 $2 $3 $4 $5 $6 $7 $8 $9 X,Y pos of 4 corners*
0 Add a 4 corners polygon primitive as box body*
4,1,4,$2,$3,$4,$5,$6,$7,$8,$9,$2,$3,0*
0 Add four circle primitives for the rounded corners*
1,1,$1+$1,$2,$3*
1,1,$1+$1,$4,$5*
1,1,$1+$1,$6,$7*
1,1,$1+$1,$8,$9*
0 Add four rect primitives between the rounded corners*
20,1,$1+$1,$2,$3,$4,$5,0*
20,1,$1+$1,$4,$5,$6,$7,0*
20,1,$1+$1,$6,$7,$8,$9,0*
20,1,$1+$1,$8,$9,$2,$3,0*%
G04 Aperture macros list end*
%ADD10RoundRect,0.120000X-0.630000X-0.180000X0.630000X-0.180000X0.630000X0.180000X-0.630000X0.180000X0*%
%ADD11RoundRect,0.600000X-0.900000X-1.150000X0.900000X-1.150000X0.900000X1.150000X-0.900000X1.150000X0*%
%ADD12RoundRect,0.480000X-0.720000X-1.020000X0.720000X-1.020000X0.720000X1.020000X-0.720000X1.020000X0*%
%ADD13RoundRect,0.320000X-0.480000X-0.580000X0.480000X-0.580000X0.480000X0.580000X-0.480000X0.580000X0*%
%ADD14RoundRect,0.240000X-0.510000X-0.360000X0.510000X-0.360000X0.510000X0.360000X-0.510000X0.360000X0*%
%ADD15RoundRect,0.400000X-1.400000X-0.600000X1.400000X-0.600000X1.400000X0.600000X-1.400000X0.600000X0*%
%ADD16RoundRect,0.180000X-0.270000X-0.320000X0.270000X-0.320000X0.270000X0.320000X-0.270000X0.320000X0*%
%ADD17RoundRect,0.200000X-0.300000X-0.300000X0.300000X-0.300000X0.300000X0.300000X-0.300000X0.300000X0*%
%ADD18RoundRect,0.360000X-0.540000X-0.740000X0.540000X-0.740000X0.540000X0.740000X-0.540000X0.740000X0*%
%ADD19RoundRect,0.180000X-0.270000X-0.295000X0.270000X-0.295000X0.270000X0.295000X-0.270000X0.295000X0*%
G04 APERTURE END LIST*
D10*
%TO.C,U1*%
X17300000Y-18095000D03*
X17300000Y-19365000D03*
X17300000Y-20635000D03*
X17300000Y-21905000D03*
X22700000Y-18095000D03*
X22700000Y-19365000D03*
X22700000Y-20635000D03*
X22700000Y-21905000D03*
D11*
X20000000Y-20000000D03*
%TD*%
D12*
%TO.C,L1*%
X30400000Y-20000000D03*
X35600000Y-20000000D03*
%TD*%
D13*
%TO.C,D2*%
X30700000Y-28000000D03*
X35300000Y-28000000D03*
%TD*%
D14*
%TO.C,U2*%
X41700000Y-19150000D03*
X44000000Y-19150000D03*
X46300000Y-19150000D03*
D15*
X44000000Y-12850000D03*
%TD*%
D10*
%TO.C,U3*%
X27300000Y-34095000D03*
X27300000Y-35365000D03*
X27300000Y-36635000D03*
X27300000Y-37905000D03*
X32700000Y-34095000D03*
X32700000Y-35365000D03*
X32700000Y-36635000D03*
X32700000Y-37905000D03*
%TD*%
D16*
%TO.C,Q1*%
X13050000Y-35000000D03*
X14950000Y-35000000D03*
X14000000Y-33000000D03*
%TD*%
%TO.C,Q2*%
X57050000Y-21000000D03*
X58950000Y-21000000D03*
X58000000Y-19000000D03*
%TD*%
D17*
%TO.C,D3*%
X61600000Y-11400000D03*
X61600000Y-8600000D03*
X64400000Y-8600000D03*
X64400000Y-11400000D03*
%TD*%
D18*
%TO.C,D1*%
X15700000Y-28000000D03*
X20300000Y-28000000D03*
%TD*%
D19*
%TO.C,R1*%
X49200000Y-28000000D03*
X50800000Y-28000000D03*
%TD*%
%TO.C,R2*%
X49200000Y-25800000D03*
X50800000Y-25800000D03*
%TD*%
%TO.C,R3*%
X49200000Y-23600000D03*
X50800000Y-23600000D03*
%TD*%
%TO.C,R4*%
X52200000Y-28000000D03*
X53800000Y-28000000D03*
%TD*%
%TO.C,R5*%
X52200000Y-25800000D03*
X53800000Y-25800000D03*
%TD*%
%TO.C,R6*%
X52200000Y-23600000D03*
X53800000Y-23600000D03*
%TD*%
%TO.C,C3*%
X5200000Y-20000000D03*
X6800000Y-20000000D03*
%TD*%
%TO.C,C4*%
X5200000Y-17000000D03*
X6800000Y-17000000D03*
%TD*%
%TO.C,C5*%
X9200000Y-34000000D03*
X10800000Y-34000000D03*
%TD*%
%TO.C,C6*%
X39200000Y-23000000D03*
X40800000Y-23000000D03*
%TD*%
%TO.C,C7*%
X34200000Y-36000000D03*
X35800000Y-36000000D03*
%TD*%
%TO.C,C8*%
X37200000Y-36000000D03*
X38800000Y-36000000D03*
%TD*%
%TO.C,C9*%
X49200000Y-16000000D03*
X50800000Y-16000000D03*
%TD*%
M02*
