%TF.GenerationSoftware,KiCad,Pcbnew,10.0.3*%
%TF.CreationDate,2026-06-21T22:44:42-04:00*%
%TF.ProjectId,DeerWatch-Carrier,44656572-5761-4746-9368-2d4361727269,rev?*%
%TF.SameCoordinates,Original*%
%TF.FileFunction,Soldermask,Bot*%
%TF.FilePolarity,Negative*%
%FSLAX46Y46*%
G04 Gerber Fmt 4.6, Leading zero omitted, Abs format (unit mm)*
G04 Created by KiCad (PCBNEW 10.0.3) date 2026-06-21 22:44:42*
%MOMM*%
%LPD*%
G01*
G04 APERTURE LIST*
%ADD10C,3.300000*%
%ADD11C,2.700000*%
%ADD12C,1.800000*%
%ADD13C,2.300000*%
%ADD14C,1.700000*%
G04 APERTURE END LIST*
D10*
%TO.C,MH1*%
X4000000Y-46000000D03*
%TD*%
%TO.C,MH2*%
X4000000Y-4000000D03*
%TD*%
%TO.C,MH3*%
X66000000Y-46000000D03*
%TD*%
%TO.C,MH4*%
X66000000Y-4000000D03*
%TD*%
D11*
%TO.C,J1*%
X5460000Y-43000000D03*
X10540000Y-43000000D03*
%TD*%
%TO.C,J2*%
X18920000Y-43000000D03*
X24000000Y-43000000D03*
X29080000Y-43000000D03*
%TD*%
D12*
%TO.C,J3*%
X10870000Y-6730000D03*
X10870000Y-9270000D03*
X13410000Y-6730000D03*
X13410000Y-9270000D03*
X15950000Y-6730000D03*
X15950000Y-9270000D03*
X18490000Y-6730000D03*
X18490000Y-9270000D03*
X21030000Y-6730000D03*
X21030000Y-9270000D03*
X23570000Y-6730000D03*
X23570000Y-9270000D03*
X26110000Y-6730000D03*
X26110000Y-9270000D03*
X28650000Y-6730000D03*
X28650000Y-9270000D03*
X31190000Y-6730000D03*
X31190000Y-9270000D03*
X33730000Y-6730000D03*
X33730000Y-9270000D03*
X36270000Y-6730000D03*
X36270000Y-9270000D03*
X38810000Y-6730000D03*
X38810000Y-9270000D03*
X41350000Y-6730000D03*
X41350000Y-9270000D03*
X43890000Y-6730000D03*
X43890000Y-9270000D03*
X46430000Y-6730000D03*
X46430000Y-9270000D03*
X48970000Y-6730000D03*
X48970000Y-9270000D03*
X51510000Y-6730000D03*
X51510000Y-9270000D03*
X54050000Y-6730000D03*
X54050000Y-9270000D03*
X56590000Y-6730000D03*
X56590000Y-9270000D03*
X59130000Y-6730000D03*
X59130000Y-9270000D03*
%TD*%
%TO.C,J4*%
X50730000Y-42730000D03*
X53270000Y-42730000D03*
X50730000Y-45270000D03*
X53270000Y-45270000D03*
%TD*%
D13*
%TO.C,C1*%
X8250000Y-28000000D03*
X11750000Y-28000000D03*
%TD*%
%TO.C,C2*%
X42250000Y-26000000D03*
X45750000Y-26000000D03*
%TD*%
D14*
%TO.C,SW1*%
X58750000Y-31750000D03*
X65250000Y-31750000D03*
X58750000Y-36250000D03*
X65250000Y-36250000D03*
%TD*%
D12*
%TO.C,BZ1*%
X62730000Y-20000000D03*
X65270000Y-20000000D03*
%TD*%
M02*
